<?xml version="1.0" encoding="UTF-8"?>
<svg width="160px" height="160px" viewBox="0 0 160 160" version="1.1" xmlns="http://www.w3.org/2000/svg" xmlns:xlink="http://www.w3.org/1999/xlink" style="background: #000000;">
    <!-- Generator: Sketch 43.2 (39069) - http://www.bohemiancoding.com/sketch -->
    <title>screen</title>
    <desc>Created with Sketch.</desc>
    <defs></defs>
    <g id="Page-1" stroke="none" stroke-width="1" fill="none" fill-rule="evenodd">
        <g id="screen">
            <text id="NYE-NASJONALMUSEET" font-family="Hooge0553, hooge 05_53" font-size="8" font-weight="normal" fill="#FFFFFF">
                <tspan x="34" y="16">NYE NASJONALMUSEET</tspan>
            </text>
            <text id="2020" font-family="Hooge0655, hooge 06_55" font-size="8" font-weight="normal" fill="#FFFFFF">
                <tspan x="101" y="151">2020</tspan>
            </text>
            <text id="NASJONALMUSEET" font-family="Hooge0655, hooge 06_55" font-size="8" font-weight="normal" fill="#FFFFFF">
                <tspan x="26" y="140">NASJONALMUSEET</tspan>
            </text>
            <text id="READ-THIS-TEXT" transform="translate(145.500000, 83.500000) rotate(-90.000000) translate(-145.500000, -83.500000) " font-family="Hooge0455, hooge 04_55" font-size="8" font-weight="normal" fill="#FFFFFF">
                <tspan x="121" y="86">READ THIS TEXT</tspan>
            </text>
            <rect id="Rectangle-2" fill="#FFFFFF" x="26" y="144" width="73" height="8"></rect>
            <text id="NYE-NASJONALMUSEET" font-family="Hooge0455, hooge 04_55" font-size="8" font-weight="normal" fill="#000000">
                <tspan x="28" y="150">NYE NASJONALMUSEET</tspan>
            </text>
            <rect id="Rectangle-3" fill="#FFFFFF" x="32" y="32" width="96" height="1"></rect>
            <rect id="Rectangle-3" fill="#FFFFFF" x="32" y="37" width="96" height="1"></rect>
            <rect id="Rectangle-3" fill="#FFFFFF" x="32" y="42" width="96" height="1"></rect>
            <rect id="Rectangle-3" fill="#FFFFFF" x="32" y="47" width="96" height="1"></rect>
            <rect id="Rectangle-3" fill="#FFFFFF" x="32" y="52" width="96" height="1"></rect>
            <rect id="Rectangle-3" fill="#FFFFFF" x="32" y="57" width="96" height="1"></rect>
            <rect id="Rectangle-3" fill="#FFFFFF" x="32" y="62" width="96" height="1"></rect>
            <rect id="Rectangle-3" fill="#FFFFFF" x="32" y="67" width="96" height="1"></rect>
            <rect id="Rectangle-3" fill="#FFFFFF" x="32" y="72" width="96" height="1"></rect>
            <rect id="Rectangle-3" fill="#FFFFFF" x="32" y="77" width="96" height="1"></rect>
            <rect id="Rectangle-3" fill="#FFFFFF" x="32" y="82" width="96" height="1"></rect>
            <rect id="Rectangle-3" fill="#FFFFFF" x="32" y="87" width="96" height="1"></rect>
            <rect id="Rectangle-3" fill="#FFFFFF" x="32" y="92" width="96" height="1"></rect>
            <rect id="Rectangle-3" fill="#FFFFFF" x="32" y="97" width="96" height="1"></rect>
            <rect id="Rectangle-3" fill="#FFFFFF" x="32" y="102" width="96" height="1"></rect>
            <rect id="Rectangle-3" fill="#FFFFFF" x="32" y="107" width="96" height="1"></rect>
            <rect id="Rectangle-3" fill="#FFFFFF" x="32" y="112" width="96" height="1"></rect>
            <rect id="Rectangle-3" fill="#FFFFFF" x="32" y="117" width="96" height="1"></rect>
            <rect id="Rectangle-3" fill="#FFFFFF" x="32" y="122" width="96" height="1"></rect>
            <rect id="Rectangle-3" fill="#FFFFFF" x="32" y="127" width="96" height="1"></rect>
        </g>
    </g>
</svg>